<?xml version="1.0" encoding="UTF-8"?>
<svg version="1.1" xmlns="http://www.w3.org/2000/svg" width="192" height="58">
<path d="M0 0 C2.97 0 5.94 0 9 0 C9 18.81 9 37.62 9 57 C2 57 2 57 -1 56 C-1.99 56.33 -2.98 56.66 -4 57 C-9.61599916 57.36826224 -13.17665989 57.21556007 -18 54 C-19.8377622 52.09096724 -21.38192781 50.11248314 -23 48 C-23.66 47.34 -24.32 46.68 -25 46 C-25.52787109 46.68835937 -25.52787109 46.68835937 -26.06640625 47.390625 C-30.00900137 52.29056045 -33.7912382 56.35249818 -40.234375 57.34375 C-45.20522985 57.54391865 -48.82423636 56.87663717 -53 54 C-57.65129677 49.47972567 -59.68907659 46.23360349 -60.3125 39.75 C-59.82668965 33.92027583 -57.75452158 29.75452158 -53.625 25.625 C-48.67430034 22.56028116 -44.6595099 21.51856693 -38.94921875 22.46484375 C-33.03372567 24.08893704 -29.58594175 28.3593695 -26 33 C-25.5153125 32.45730469 -25.030625 31.91460938 -24.53125 31.35546875 C-20.20376815 26.73671409 -16.41817258 23.02839445 -10 22 C-6.46452312 22.03123213 -3.20391327 22.39804336 0 24 C0 16.08 0 8.16 0 0 Z M-49 34 C-51.33984442 36.87648225 -51.33984442 36.87648225 -50.875 40.4375 C-49.91864479 44.33123193 -49.30245308 45.76861278 -46 48 C-42.86815844 48.61275161 -40.99332946 48.65243685 -38.28125 46.87109375 C-36.79922266 45.64422678 -35.39320969 44.32686637 -34 43 C-34.9951498 37.14214395 -34.9951498 37.14214395 -38.4375 32.5 C-42.85470931 29.9143165 -45.05218191 31.26689517 -49 34 Z M-14 34 C-15.78344178 36.06954847 -15.78344178 36.06954847 -17 38 C-15.01073513 43.74104647 -15.01073513 43.74104647 -11 48 C-8.08559301 48.66721536 -8.08559301 48.66721536 -5 48 C-1.97966263 46.06307631 -1.97966263 46.06307631 0 43 C0.63664952 38.96788636 0.69818231 36.98262696 -1.6875 33.625 C-6.47648601 30.25976659 -9.3685362 30.46546184 -14 34 Z " fill="#FFFFFF" transform="translate(110,0)"/>
<path d="M0 0 C5.63093757 5.08157781 6.80531069 7.9655146 7.5625 15.3125 C5.00036446 15.95980804 2.43781515 16.60539288 -0.125 17.25 C-0.84623047 17.43240234 -1.56746094 17.61480469 -2.31054688 17.80273438 C-6.00577248 18.73075907 -9.69095469 19.61048461 -13.4375 20.3125 C-13.1075 20.9725 -12.7775 21.6325 -12.4375 22.3125 C-9.06285976 22.5628577 -9.06285976 22.5628577 -5.4375 22.3125 C-4.4180881 21.33229625 -3.41503644 20.33446992 -2.4375 19.3125 C1.04282201 19.57352415 2.61346298 20.34647532 5.5625 22.3125 C4.20481796 27.20015533 1.89215579 28.83841098 -2.4375 31.3125 C-7.54074201 33.01358067 -11.75623434 32.87771247 -16.625 30.625 C-21.15466583 28.14948495 -23.79086374 25.25240878 -25.4375 20.3125 C-25.94462636 15.01677061 -26.13156829 10.67584843 -23.6875 5.875 C-17.14551231 -1.57559709 -9.59112599 -4.70837094 0 0 Z M-15.4375 9.3125 C-15.7675 10.3025 -16.0975 11.2925 -16.4375 12.3125 C-12.4775 11.6525 -8.5175 10.9925 -4.4375 10.3125 C-4.4375 9.3225 -4.4375 8.3325 -4.4375 7.3125 C-9.2151158 6.09031921 -11.53418778 6.18985022 -15.4375 9.3125 Z " fill="#FFFFFF" transform="translate(147.4375,24.6875)"/>
<path d="M0 0 C1.65 0 3.3 0 5 0 C5 6.6 5 13.2 5 20 C-5 20 -5 20 -8 18 C-8.495 18.495 -8.495 18.495 -9 19 C-10.66617115 19.04063832 -12.33388095 19.042721 -14 19 C-14.495 15.04 -14.495 15.04 -15 11 C-15.66 11 -16.32 11 -17 11 C-17.33 13.97 -17.66 16.94 -18 20 C-22.95 20 -27.9 20 -33 20 C-33.33 17.03 -33.66 14.06 -34 11 C-34.66 11 -35.32 11 -36 11 C-36.33 13.97 -36.66 16.94 -37 20 C-38.65 19.67 -40.3 19.34 -42 19 C-42 16.03 -42 13.06 -42 10 C-42.99 10.495 -42.99 10.495 -44 11 C-44.46523063 12.89533342 -44.46523063 12.89533342 -44.625 15.0625 C-44.810625 17.0115625 -44.810625 17.0115625 -45 19 C-46.65 19 -48.3 19 -50 19 C-50 14.71 -50 10.42 -50 6 C-46.87477228 5.94621979 -43.7504629 5.90643425 -40.625 5.875 C-39.73554687 5.85824219 -38.84609375 5.84148438 -37.9296875 5.82421875 C-37.07890625 5.81777344 -36.228125 5.81132813 -35.3515625 5.8046875 C-34.17327881 5.78897705 -34.17327881 5.78897705 -32.97119141 5.77294922 C-31 6 -31 6 -29 8 C-28.67 7.34 -28.34 6.68 -28 6 C-25.20807795 5.94619422 -22.4171859 5.90642331 -19.625 5.875 C-18.8309375 5.85824219 -18.036875 5.84148438 -17.21875 5.82421875 C-15.14507985 5.80664527 -13.07116759 5.89664832 -11 6 C-10.34 6.66 -9.68 7.32 -9 8 C-8.34 7.34 -7.68 6.68 -7 6 C-3.375 5.875 -3.375 5.875 0 6 C0 4.02 0 2.04 0 0 Z M-3 10 C-3.66 11.32 -4.32 12.64 -5 14 C-3.68 14.33 -2.36 14.66 -1 15 C-0.67 13.68 -0.34 12.36 0 11 C-0.99 10.67 -1.98 10.34 -3 10 Z " fill="#FFFFFF" transform="translate(103,0)"/>
<path d="M0 0 C2.69219472 1.07687789 4.61532386 2.3042303 7 4 C5.70700306 6.88437779 4.34058637 8.87219421 2 11 C1.29875 10.649375 0.5975 10.29875 -0.125 9.9375 C-3.58229692 8.81012057 -5.52082298 9.01675432 -9 10 C-11 11 -11 11 -12 13 C-12.3931463 16.60384106 -12.39343329 19.09741776 -10.9375 22.4375 C-8.96195691 24.31017571 -8.96195691 24.31017571 -5.5625 24.4375 C-1.79402704 23.97470507 -0.88240051 23.20984039 2 21 C5.37036311 21.24074022 6.58798021 21.58798021 9 24 C9 25.8125 9 25.8125 8 28 C2.11214953 33.62616822 2.11214953 33.62616822 -2 34 C-3.60875 34.1546875 -3.60875 34.1546875 -5.25 34.3125 C-9.89884756 33.92509604 -13.20155045 32.70020218 -17 30 C-21.00714005 24.96538814 -22.42620303 20.74233227 -22.34375 14.4140625 C-21.56112128 8.91787444 -18.28260851 5.22153191 -14.375 1.5 C-9.53305863 -0.65197394 -5.21661375 -0.78399975 0 0 Z " fill="#FFFFFF" transform="translate(40,23)"/>
<path d="M0 0 C2.56640625 -0.328125 2.56640625 -0.328125 5.5625 -0.25 C7.04943359 -0.22679688 7.04943359 -0.22679688 8.56640625 -0.203125 C11 0 11 0 12 1 C11.50190674 8.17082532 9.56067567 14.91365593 7.625 21.8125 C7.16867188 23.50922852 7.16867188 23.50922852 6.703125 25.24023438 C6.40148437 26.32240234 6.09984375 27.40457031 5.7890625 28.51953125 C5.51787598 29.50026611 5.24668945 30.48100098 4.96728516 31.49145508 C3.97671459 34.06038808 3.16150812 35.32740031 1 37 C-1.19140625 37.36328125 -1.19140625 37.36328125 -3.5625 37.3125 C-4.34753906 37.30863281 -5.13257813 37.30476563 -5.94140625 37.30078125 C-8 37 -8 37 -10 35 C-9.61762654 28.24784424 -7.39190072 21.72555694 -5.5625 15.25 C-5.24990234 14.11433594 -4.93730469 12.97867188 -4.61523438 11.80859375 C-4.31037109 10.72191406 -4.00550781 9.63523437 -3.69140625 8.515625 C-3.41498291 7.52852539 -3.13855957 6.54142578 -2.85375977 5.52441406 C-2 3 -2 3 0 0 Z M1 10 C2 12 2 12 2 12 Z M1 16 C1.99 17.485 1.99 17.485 3 19 C3 18.01 3 17.02 3 16 C2.34 16 1.68 16 1 16 Z M-1 17 C0 19 0 19 0 19 Z M0 27 C-1.98 27.99 -1.98 27.99 -4 29 C-2.35 29 -0.7 29 1 29 C0.67 28.34 0.34 27.68 0 27 Z " fill="#FFFFFF" transform="translate(167,21)"/>
<path d="M0 0 C5.61800764 0.85816813 9.84010191 3.13599425 14 7 C15.1875 10.375 15.1875 10.375 14 14 C10.98356355 17.16086987 7.77632042 19.79714642 4 22 C2.68 22 1.36 22 0 22 C-0.3125 19.25 -0.3125 19.25 0 16 C2.375 13.625 2.375 13.625 5 12 C5.66 12 6.32 12 7 12 C3.82460444 8.57421051 3.82460444 8.57421051 0 6 C0 4.02 0 2.04 0 0 Z " fill="#FFFFFF" transform="translate(178,31)"/>
<path d="M0 0 C0.375 2.75 0.375 2.75 0 6 C-2.9375 8.25 -2.9375 8.25 -6 10 C-6.33 10.66 -6.66 11.32 -7 12 C-6.1028125 12.433125 -6.1028125 12.433125 -5.1875 12.875 C-3 14 -3 14 0 16 C0.1875 19.125 0.1875 19.125 0 22 C-5.92720611 21.17882402 -9.92048764 18.28434144 -14 14 C-15.1875 10.5 -15.1875 10.5 -14 7 C-9.72773621 2.97950866 -5.96760213 0 0 0 Z " fill="#FFFFFF" transform="translate(14,31)"/>
<path d="M0 0 C2.475 0.495 2.475 0.495 5 1 C4.67 2.32 4.34 3.64 4 5 C2.68 4.67 1.36 4.34 0 4 C0 2.68 0 1.36 0 0 Z " fill="#FFFFFF" transform="translate(75,0)"/>
</svg>
