<?xml version="1.0" encoding="UTF-8"?>
<svg version="1.1" xmlns="http://www.w3.org/2000/svg" width="449" height="43">
<path d="M0 0 C17.82 0 35.64 0 54 0 C54 3.63 54 7.26 54 11 C39.81 11 25.62 11 11 11 C11 12.65 11 14.3 11 16 C24.86 16 38.72 16 53 16 C53 19.63 53 23.26 53 27 C39.14 27 25.28 27 11 27 C11 28.98 11 30.96 11 33 C25.19 33 39.38 33 54 33 C54 36.3 54 39.6 54 43 C36.18 43 18.36 43 0 43 C0 28.81 0 14.62 0 0 Z " fill="#000000" transform="translate(395,0)"/>
<path d="M0 0 C12 0 12 0 15.5859375 3.21875 C16.55664594 4.61825377 17.48624191 6.04707373 18.375 7.5 C18.84292969 8.19609375 19.31085937 8.8921875 19.79296875 9.609375 C20.73436598 11.00980063 21.66134627 12.42003161 22.57324219 13.83984375 C24.88872222 17.34555342 27.44154479 20.66941354 30 24 C31.1304937 22.62951323 32.25386542 21.25315357 33.375 19.875 C34.11105469 18.9778125 34.84710938 18.080625 35.60546875 17.15625 C37.35272452 14.85317877 38.83449309 12.68435557 40.30078125 10.21875 C40.69797363 9.58211426 41.09516602 8.94547852 41.50439453 8.28955078 C42.27662613 7.03989329 43.013021 5.76716324 43.70654297 4.47216797 C44.82421875 2.7109375 44.82421875 2.7109375 48 0 C52.29 0 56.58 0 61 0 C61 14.19 61 28.38 61 43 C57.37 43 53.74 43 50 43 C49.67 35.08 49.34 27.16 49 19 C47.14375 21.475 45.2875 23.95 43.375 26.5 C39.25 32 35.125 37.5 31 43 C27.59665603 41.58451098 25.97852639 40.00727833 23.87109375 37.0078125 C23.31099609 36.22019531 22.75089844 35.43257812 22.17382812 34.62109375 C21.60083984 33.79738281 21.02785156 32.97367188 20.4375 32.125 C19.29048528 30.50251884 18.14335378 28.88012022 16.99609375 27.2578125 C16.24090454 26.17717529 16.24090454 26.17717529 15.47045898 25.07470703 C14.01667974 23.02353386 12.50847034 21.01129378 11 19 C10.67 26.92 10.34 34.84 10 43 C6.7 43 3.4 43 0 43 C0 28.81 0 14.62 0 0 Z " fill="#000000" transform="translate(1,0)"/>
<path d="M0 0 C6.56605494 -0.09201167 13.12985809 -0.17159795 19.69604492 -0.21972656 C21.92789302 -0.23979685 24.15968882 -0.26705933 26.39135742 -0.30175781 C29.60608857 -0.35047672 32.82012227 -0.37301516 36.03515625 -0.390625 C37.52306419 -0.42159271 37.52306419 -0.42159271 39.04103088 -0.45318604 C45.25476891 -0.45518224 48.93702621 0.3213607 54 4 C58.07128187 9.32846706 57.48014185 15.58046349 57.4375 22 C57.4674707 23.60101562 57.4674707 23.60101562 57.49804688 25.234375 C57.49427142 31.30530969 57.27351562 35.3134029 53 40 C49.9613504 42.70919137 48.10322361 43.37193214 44.04785156 43.34057617 C43.06713684 43.34034958 42.08642212 43.34012299 41.07598877 43.33988953 C40.02481873 43.32440567 38.97364868 43.30892181 37.890625 43.29296875 C36.80867859 43.28872391 35.72673218 43.28447906 34.61199951 43.28010559 C31.1577461 43.26331845 27.70407696 43.22566527 24.25 43.1875 C21.90756051 43.17245325 19.56511187 43.15876483 17.22265625 43.14648438 C11.48136486 43.11596723 5.74133612 43.05724375 0 43 C0 28.81 0 14.62 0 0 Z M11 11 C11 18.26 11 25.52 11 33 C15.3422329 33.06896488 19.68255762 33.12866492 24.02490234 33.16479492 C25.50120491 33.17985923 26.97746288 33.20031482 28.45361328 33.22631836 C30.57856258 33.26280739 32.70291901 33.27974933 34.828125 33.29296875 C36.1059082 33.3086792 37.38369141 33.32438965 38.70019531 33.34057617 C42.20247647 32.9791022 43.62566464 32.56844268 46 30 C46.37980738 27.17686485 46.51500992 24.81035976 46.4375 22 C46.44458984 21.27554687 46.45167969 20.55109375 46.45898438 19.8046875 C46.42930168 15.85699367 46.42930168 15.85699367 44.92871094 12.2878418 C42.01115027 10.33972375 39.09171213 10.6304649 35.70703125 10.70703125 C35.00100266 10.71127609 34.29497406 10.71552094 33.56755066 10.71989441 C31.31547697 10.73666966 29.06430258 10.77431757 26.8125 10.8125 C25.28451815 10.82754843 23.75652224 10.84123656 22.22851562 10.85351562 C18.48505303 10.88401641 14.74353144 10.94273351 11 11 Z " fill="#000000" transform="translate(333,0)"/>
<path d="M0 0 C6.44164732 -0.06896292 12.88200779 -0.12867041 19.32373047 -0.16479492 C21.51387885 -0.17985806 23.70399719 -0.20031259 25.89404297 -0.22631836 C29.04662503 -0.26280989 32.19880737 -0.27975139 35.3515625 -0.29296875 C36.32678864 -0.30845261 37.30201477 -0.32393646 38.30679321 -0.33988953 C43.64061387 -0.34120251 47.40227453 -0.02200892 52 3 C57.30873751 8.40638987 56.6646552 14.81146057 56.625 21.9375 C56.65722656 23.09185547 56.68945312 24.24621094 56.72265625 25.43554688 C56.72895444 30.92441744 56.71110915 34.93039813 53.0859375 39.25390625 C49.88675652 42.40573896 47.8376703 43.1252295 43.36669922 43.11352539 C42.40585419 43.11344986 41.44500916 43.11337433 40.45504761 43.11329651 C39.41542877 43.10813522 38.37580994 43.10297394 37.3046875 43.09765625 C36.24210724 43.0962413 35.17952698 43.09482635 34.08474731 43.09336853 C30.68146991 43.08775834 27.27825762 43.07520409 23.875 43.0625 C21.57161553 43.05748631 19.26823003 43.05292318 16.96484375 43.04882812 C11.30985039 43.03863527 5.65499833 43.01906179 0 43 C0 28.81 0 14.62 0 0 Z M10 11 C10 18.26 10 25.52 10 33 C14.32500216 33.11509468 18.64465436 33.21451085 22.9699707 33.2746582 C24.43955525 33.29973644 25.90901587 33.33380856 27.37817383 33.37719727 C29.49591681 33.43815499 31.61200576 33.46627316 33.73046875 33.48828125 C35.00301514 33.51446533 36.27556152 33.54064941 37.58666992 33.56762695 C41.90321538 32.84979789 43.34045313 31.40446914 46 28 C46.74823469 24.7992647 46.74823469 24.7992647 46.5625 21.4375 C46.56378906 20.32246094 46.56507813 19.20742188 46.56640625 18.05859375 C45.86717598 14.28275031 45.04490868 13.3004547 42 11 C38.51794546 10.44838694 38.51794546 10.44838694 34.609375 10.609375 C33.90476135 10.61503479 33.20014771 10.62069458 32.47418213 10.62652588 C30.23208572 10.64884922 27.99161012 10.69903246 25.75 10.75 C24.22658565 10.77007048 22.70314614 10.7883203 21.1796875 10.8046875 C17.45200414 10.84529407 13.72780758 10.9235757 10 11 Z " fill="#000000" transform="translate(148,0)"/>
<path d="M0 0 C0.79853394 -0.00524185 1.59706787 -0.0104837 2.4197998 -0.0158844 C4.10065554 -0.02228052 5.78155618 -0.02099894 7.46240234 -0.01245117 C10.0239267 -0.00393061 12.58322616 -0.03275015 15.14453125 -0.06445312 C16.7838535 -0.06606521 18.42317968 -0.06548746 20.0625 -0.0625 C21.20180969 -0.07935097 21.20180969 -0.07935097 22.36413574 -0.09654236 C27.52500038 -0.02938941 30.4064985 1.08476631 34.53125 4.43359375 C39.26682771 9.82235459 38.77731243 15.36267002 38.84375 22.18359375 C38.87275391 23.16070313 38.90175781 24.1378125 38.93164062 25.14453125 C38.98710434 31.47592723 38.43023486 35.35893543 34.53125 40.43359375 C30.06790846 43.99126899 25.96849865 43.90101817 20.50390625 43.90234375 C19.63736923 43.90995728 18.77083221 43.9175708 17.8780365 43.92541504 C16.04998651 43.93619399 14.22187504 43.93907812 12.39379883 43.93457031 C9.60588327 43.93359798 6.82072164 43.97524196 4.03320312 44.01953125 C2.25260988 44.02473881 0.47200711 44.02742643 -1.30859375 44.02734375 C-2.13689194 44.04373901 -2.96519012 44.06013428 -3.81858826 44.07702637 C-7.91340017 44.02843917 -10.64273486 43.72826629 -13.91625977 41.14648438 C-19.37837435 35.34112644 -18.83456795 30.31106183 -18.84375 22.62109375 C-18.86824219 21.55310547 -18.89273437 20.48511719 -18.91796875 19.38476562 C-18.94213744 12.87130481 -18.6103738 8.58654429 -14.46875 3.43359375 C-9.57212318 0.3363243 -5.60882012 -0.02167822 0 0 Z M-6.34985352 12.73022461 C-8.28781994 15.68051738 -7.93962453 19.02332336 -7.90625 22.43359375 C-7.92623047 23.15804688 -7.94621094 23.8825 -7.96679688 24.62890625 C-8.01209687 28.7880653 -8.01209687 28.7880653 -5.82250977 32.13696289 C-1.04826597 34.76698144 4.71102081 33.90160601 10.03125 33.87109375 C11.26746094 33.89107422 12.50367188 33.91105469 13.77734375 33.93164062 C14.96457031 33.93099609 16.15179688 33.93035156 17.375 33.9296875 C18.45974609 33.93154053 19.54449219 33.93339355 20.66210938 33.93530273 C24.20606767 33.31559253 25.38246182 32.27389466 27.53125 29.43359375 C28.12725184 26.07138217 28.12725184 26.07138217 27.96875 22.43359375 C27.96746094 21.21671875 27.96617187 19.99984375 27.96484375 18.74609375 C27.49240397 15.13682409 27.11047154 13.93448462 24.53125 11.43359375 C21.48811161 10.83133498 21.48811161 10.83133498 18 10.9375 C16.71480469 10.93685547 15.42960937 10.93621094 14.10546875 10.93554688 C13.10265869 10.95113647 13.10265869 10.95113647 12.07958984 10.96704102 C10.03791026 10.99599928 7.99882784 10.9876505 5.95703125 10.97460938 C-0.51172428 10.62068044 -0.51172428 10.62068044 -6.34985352 12.73022461 Z " fill="#000000" transform="translate(290.46875,-0.43359375)"/>
<path d="M0 0 C0.82072998 -0.00524185 1.64145996 -0.0104837 2.48706055 -0.0158844 C4.21499505 -0.0222818 5.94297323 -0.02099727 7.67089844 -0.01245117 C10.30482884 -0.00393106 12.93659538 -0.03274824 15.5703125 -0.06445312 C17.25520769 -0.06606521 18.94010669 -0.06548747 20.625 -0.0625 C21.79712036 -0.07935097 21.79712036 -0.07935097 22.99291992 -0.09654236 C28.21578651 -0.03041889 31.1570887 1.00779718 35.3125 4.43359375 C38.79771211 8.67236524 39.87666015 11.98559561 40.3125 17.43359375 C38.5437602 17.56872667 36.77206945 17.66564961 35 17.74609375 C34.01386719 17.80410156 33.02773438 17.86210937 32.01171875 17.921875 C31.12097656 17.76074219 30.23023438 17.59960938 29.3125 17.43359375 C28.91675781 16.60859375 28.52101563 15.78359375 28.11328125 14.93359375 C26.48598328 12.0567412 26.48598328 12.0567412 22.94262695 11.8659668 C21.56175863 11.86675639 20.18072913 11.8948963 18.80078125 11.9453125 C18.07255661 11.95238724 17.34433197 11.95946198 16.59403992 11.9667511 C14.26997763 11.99472294 11.9483327 12.05745725 9.625 12.12109375 C8.04886295 12.14617344 6.47268809 12.1689872 4.89648438 12.18945312 C1.03422602 12.24455749 -2.82622732 12.33084147 -6.6875 12.43359375 C-7.40071591 15.84529138 -7.84802815 19.00593634 -7.875 22.49609375 C-7.89626953 23.75099609 -7.89626953 23.75099609 -7.91796875 25.03125 C-7.66761951 27.64082262 -7.08700486 29.22875977 -5.6875 31.43359375 C-1.12946352 33.71261199 5.18328906 32.66375545 10.1875 32.68359375 C12.12689453 32.71453125 12.12689453 32.71453125 14.10546875 32.74609375 C15.34683594 32.75125 16.58820313 32.75640625 17.8671875 32.76171875 C19.00655762 32.77106445 20.14592773 32.78041016 21.31982422 32.79003906 C24.63163765 32.39558258 25.97859553 31.77779788 28.3125 29.43359375 C28.8075 27.94859375 28.8075 27.94859375 29.3125 26.43359375 C32.9425 26.43359375 36.5725 26.43359375 40.3125 26.43359375 C38.55072715 37.44467408 38.55072715 37.44467408 34.3125 41.43359375 C31.52093441 43.0775422 29.43332567 43.6927477 26.20581055 43.75585938 C25.40785568 43.77507446 24.60990082 43.79428955 23.7877655 43.81408691 C22.93354507 43.82258667 22.07932465 43.83108643 21.19921875 43.83984375 C20.31144241 43.8512439 19.42366608 43.86264404 18.50898743 43.87438965 C16.63209783 43.89325938 14.75514242 43.90634563 12.87817383 43.9140625 C10.01980793 43.93345933 7.16433063 43.99551117 4.30664062 44.05859375 C2.47918367 44.0716571 0.65170623 44.08215677 -1.17578125 44.08984375 C-2.02392899 44.11453735 -2.87207672 44.13923096 -3.7459259 44.16467285 C-9.36269824 44.12291845 -12.28467239 42.85569032 -16.39299011 39.01599121 C-20.09747518 34.48766137 -18.95325338 27.63407796 -19 22.12109375 C-19.02900391 20.99251953 -19.05800781 19.86394531 -19.08789062 18.70117188 C-19.1698457 7.99027354 -19.1698457 7.99027354 -14.6875 3.43359375 C-9.69522507 0.32319165 -5.69960664 -0.02141246 0 0 Z " fill="#000000" transform="translate(227.6875,-0.43359375)"/>
<path d="M0 0 C14.47315555 0 14.47315555 0 19.1328125 4.63476562 C19.70773438 5.27091797 20.28265625 5.90707031 20.875 6.5625 C21.7721875 7.47612305 21.7721875 7.47612305 22.6875 8.40820312 C23.8860978 9.63404178 25.07140202 10.8730276 26.24267578 12.125 C30.42160368 16.58376164 34.73496907 20.89521062 39.375 24.875 C42.97222222 27.97222222 42.97222222 27.97222222 44 29 C44.33 19.43 44.66 9.86 45 0 C48.63 0 52.26 0 56 0 C56 14.19 56 28.38 56 43 C42 43 42 43 36.6875 39.0625 C35.09552316 37.40277947 33.53257936 35.71471952 32 34 C30.46606084 32.45064437 28.92456574 30.90872691 27.375 29.375 C26.28251953 28.26705078 26.28251953 28.26705078 25.16796875 27.13671875 C22.49051456 24.49785849 19.68902159 22.03784852 16.82421875 19.60546875 C14.80150971 17.82531154 12.90529677 15.90529677 11 14 C10.67 23.57 10.34 33.14 10 43 C6.7 43 3.4 43 0 43 C0 28.81 0 14.62 0 0 Z " fill="#000000" transform="translate(87,0)"/>
<path d="M0 0 C3.63 0 7.26 0 11 0 C11 14.19 11 28.38 11 43 C7.37 43 3.74 43 0 43 C0 28.81 0 14.62 0 0 Z " fill="#000000" transform="translate(69,0)"/>
</svg>
